<svg width="24" height="25" viewBox="0 0 24 25" fill="none" xmlns="http://www.w3.org/2000/svg">
<path d="M10.875 12.5007C10.875 12.2782 10.941 12.0607 11.0646 11.8757C11.1882 11.6907 11.3639 11.5465 11.5695 11.4614C11.7751 11.3762 12.0013 11.3539 12.2195 11.3973C12.4377 11.4408 12.6382 11.5479 12.7955 11.7052C12.9529 11.8626 13.06 12.063 13.1034 12.2813C13.1468 12.4995 13.1245 12.7257 13.0394 12.9313C12.9542 13.1368 12.81 13.3125 12.625 13.4361C12.44 13.5598 12.2225 13.6257 12 13.6257C11.7017 13.6257 11.4155 13.5072 11.2045 13.2962C10.9936 13.0852 10.875 12.7991 10.875 12.5007ZM7.87503 13.6257C8.09753 13.6257 8.31504 13.5598 8.50004 13.4361C8.68505 13.3125 8.82924 13.1368 8.91439 12.9313C8.99954 12.7257 9.02182 12.4995 8.97841 12.2813C8.935 12.063 8.82786 11.8626 8.67052 11.7052C8.51319 11.5479 8.31273 11.4408 8.0945 11.3973C7.87627 11.3539 7.65007 11.3762 7.44451 11.4614C7.23894 11.5465 7.06324 11.6907 6.93962 11.8757C6.81601 12.0607 6.75003 12.2782 6.75003 12.5007C6.75003 12.7991 6.86855 13.0852 7.07953 13.2962C7.29051 13.5072 7.57666 13.6257 7.87503 13.6257ZM16.125 13.6257C16.3475 13.6257 16.565 13.5598 16.75 13.4361C16.935 13.3125 17.0792 13.1368 17.1644 12.9313C17.2495 12.7257 17.2718 12.4995 17.2284 12.2813C17.185 12.063 17.0779 11.8626 16.9205 11.7052C16.7632 11.5479 16.5627 11.4408 16.3445 11.3973C16.1263 11.3539 15.9001 11.3762 15.6945 11.4614C15.4889 11.5465 15.3132 11.6907 15.1896 11.8757C15.066 12.0607 15 12.2782 15 12.5007C15 12.7991 15.1186 13.0852 15.3295 13.2962C15.5405 13.5072 15.8267 13.6257 16.125 13.6257ZM21.75 6.50073V18.5007C21.75 18.8986 21.592 19.2801 21.3107 19.5614C21.0294 19.8427 20.6479 20.0007 20.25 20.0007H7.78128L4.72503 22.6407L4.71659 22.6473C4.44662 22.8762 4.10397 23.0015 3.75003 23.0007C3.52968 23.0002 3.31211 22.9516 3.11253 22.8582C2.85365 22.7386 2.63468 22.547 2.48174 22.3063C2.3288 22.0655 2.24836 21.7859 2.25003 21.5007V6.50073C2.25003 6.10291 2.40806 5.72138 2.68937 5.44007C2.97067 5.15877 3.3522 5.00073 3.75003 5.00073H20.25C20.6479 5.00073 21.0294 5.15877 21.3107 5.44007C21.592 5.72138 21.75 6.10291 21.75 6.50073ZM20.25 6.50073H3.75003V21.5007L7.00971 18.6882C7.14523 18.5687 7.31934 18.5021 7.50003 18.5007H20.25V6.50073Z" fill="#FFC344"/>
</svg>
