<svg width="13" height="13" viewBox="0 0 13 13" fill="none" xmlns="http://www.w3.org/2000/svg">
<path d="M12.3175 11.4332C12.3756 11.4912 12.4217 11.5602 12.4531 11.636C12.4845 11.7119 12.5007 11.7932 12.5007 11.8753C12.5007 11.9575 12.4845 12.0388 12.4531 12.1147C12.4217 12.1905 12.3756 12.2595 12.3175 12.3175C12.2595 12.3756 12.1905 12.4217 12.1147 12.4531C12.0388 12.4845 11.9575 12.5007 11.8753 12.5007C11.7932 12.5007 11.7119 12.4845 11.636 12.4531C11.5602 12.4217 11.4912 12.3756 11.4332 12.3175L6.25035 7.13394L1.06753 12.3175C0.95026 12.4348 0.7912 12.5007 0.625347 12.5007C0.459495 12.5007 0.300435 12.4348 0.18316 12.3175C0.0658846 12.2003 3.26935e-09 12.0412 0 11.8753C-3.26935e-09 11.7095 0.0658846 11.5504 0.18316 11.4332L5.36675 6.25035L0.18316 1.06753C0.0658846 0.95026 0 0.7912 0 0.625347C0 0.459495 0.0658846 0.300435 0.18316 0.18316C0.300435 0.0658846 0.459495 0 0.625347 0C0.7912 0 0.95026 0.0658846 1.06753 0.18316L6.25035 5.36675L11.4332 0.18316C11.5504 0.0658846 11.7095 -3.26935e-09 11.8753 0C12.0412 3.26935e-09 12.2003 0.0658846 12.3175 0.18316C12.4348 0.300435 12.5007 0.459495 12.5007 0.625347C12.5007 0.7912 12.4348 0.95026 12.3175 1.06753L7.13394 6.25035L12.3175 11.4332Z" fill="black"/>
</svg>
