<svg width="24" height="25" viewBox="0 0 24 25" fill="none" xmlns="http://www.w3.org/2000/svg">
<path d="M18 9.50073C18 12.1735 15.7059 14.386 12.75 14.7095V15.5007C12.75 15.6996 12.671 15.8904 12.5303 16.0311C12.3897 16.1717 12.1989 16.2507 12 16.2507C11.8011 16.2507 11.6103 16.1717 11.4697 16.0311C11.329 15.8904 11.25 15.6996 11.25 15.5007V14.0007C11.25 13.8018 11.329 13.6111 11.4697 13.4704C11.6103 13.3297 11.8011 13.2507 12 13.2507C14.4816 13.2507 16.5 11.5689 16.5 9.50073C16.5 7.43261 14.4816 5.75073 12 5.75073C9.51844 5.75073 7.5 7.43261 7.5 9.50073C7.5 9.69964 7.42098 9.89041 7.28033 10.0311C7.13968 10.1717 6.94891 10.2507 6.75 10.2507C6.55109 10.2507 6.36032 10.1717 6.21967 10.0311C6.07902 9.89041 6 9.69964 6 9.50073C6 6.60573 8.69156 4.25073 12 4.25073C15.3084 4.25073 18 6.60573 18 9.50073ZM12 18.5007C11.7033 18.5007 11.4133 18.5887 11.1666 18.7535C10.92 18.9184 10.7277 19.1526 10.6142 19.4267C10.5006 19.7008 10.4709 20.0024 10.5288 20.2934C10.5867 20.5843 10.7296 20.8516 10.9393 21.0614C11.1491 21.2712 11.4164 21.414 11.7074 21.4719C11.9983 21.5298 12.2999 21.5001 12.574 21.3866C12.8481 21.273 13.0824 21.0808 13.2472 20.8341C13.412 20.5874 13.5 20.2974 13.5 20.0007C13.5 19.6029 13.342 19.2214 13.0607 18.9401C12.7794 18.6588 12.3978 18.5007 12 18.5007Z" fill="#FFC344"/>
</svg>
