<svg width="28" height="25" viewBox="0 0 28 25" fill="none" xmlns="http://www.w3.org/2000/svg">
<path d="M27.6101 0.273765C27.4551 0.139975 27.2666 0.0509958 27.0649 0.0164137C26.8631 -0.0181684 26.6557 0.00295726 26.4651 0.0775146L1.13257 9.99126C0.773553 10.1309 0.469601 10.3833 0.266477 10.7106C0.0633533 11.0379 -0.0279492 11.4224 0.00631548 11.806C0.0405802 12.1897 0.198557 12.5519 0.456464 12.838C0.71437 13.1241 1.05825 13.3187 1.43632 13.3925L8.00007 14.6813V22C7.99878 22.3987 8.11725 22.7885 8.34012 23.119C8.563 23.4496 8.88001 23.7055 9.25007 23.8538C9.61956 24.0046 10.0259 24.0409 10.4162 23.9577C10.8066 23.8746 11.1629 23.6759 11.4388 23.3875L14.6038 20.105L19.6251 24.5C19.9873 24.8213 20.4546 24.9992 20.9388 25C21.151 24.9998 21.3619 24.9665 21.5638 24.9013C21.8938 24.7966 22.1905 24.6073 22.4245 24.3522C22.6585 24.0971 22.8216 23.7852 22.8976 23.4475L27.9713 1.37501C28.0167 1.17595 28.0071 0.96829 27.9434 0.77429C27.8798 0.58029 27.7646 0.407266 27.6101 0.273765ZM19.9676 4.77376L8.76882 12.7938L2.56882 11.5775L19.9676 4.77376ZM10.0001 22V16.065L13.0988 18.7825L10.0001 22ZM20.9413 23L10.6063 13.9375L25.4813 3.27626L20.9413 23Z" fill="#FFB61A"/>
</svg>
