<svg width="24" height="25" viewBox="0 0 24 25" fill="none" xmlns="http://www.w3.org/2000/svg">
<g clip-path="url(#clip0_8_130)">
<path d="M23.25 11.7507H22.5V8.75073C22.5 8.35291 22.342 7.97138 22.0607 7.69007C21.7794 7.40877 21.3978 7.25073 21 7.25073H19.5V6.50073C19.5 6.10291 19.342 5.72138 19.0607 5.44007C18.7794 5.15877 18.3978 5.00073 18 5.00073H15.75C15.3522 5.00073 14.9706 5.15877 14.6893 5.44007C14.408 5.72138 14.25 6.10291 14.25 6.50073V11.7507H9.75V6.50073C9.75 6.10291 9.59196 5.72138 9.31066 5.44007C9.02936 5.15877 8.64782 5.00073 8.25 5.00073H6C5.60218 5.00073 5.22064 5.15877 4.93934 5.44007C4.65804 5.72138 4.5 6.10291 4.5 6.50073V7.25073H3C2.60218 7.25073 2.22064 7.40877 1.93934 7.69007C1.65804 7.97138 1.5 8.35291 1.5 8.75073V11.7507H0.75C0.551088 11.7507 0.360322 11.8298 0.21967 11.9704C0.0790176 12.1111 0 12.3018 0 12.5007C0 12.6996 0.0790176 12.8904 0.21967 13.0311C0.360322 13.1717 0.551088 13.2507 0.75 13.2507H1.5V16.2507C1.5 16.6486 1.65804 17.0301 1.93934 17.3114C2.22064 17.5927 2.60218 17.7507 3 17.7507H4.5V18.5007C4.5 18.8986 4.65804 19.2801 4.93934 19.5614C5.22064 19.8427 5.60218 20.0007 6 20.0007H8.25C8.64782 20.0007 9.02936 19.8427 9.31066 19.5614C9.59196 19.2801 9.75 18.8986 9.75 18.5007V13.2507H14.25V18.5007C14.25 18.8986 14.408 19.2801 14.6893 19.5614C14.9706 19.8427 15.3522 20.0007 15.75 20.0007H18C18.3978 20.0007 18.7794 19.8427 19.0607 19.5614C19.342 19.2801 19.5 18.8986 19.5 18.5007V17.7507H21C21.3978 17.7507 21.7794 17.5927 22.0607 17.3114C22.342 17.0301 22.5 16.6486 22.5 16.2507V13.2507H23.25C23.4489 13.2507 23.6397 13.1717 23.7803 13.0311C23.921 12.8904 24 12.6996 24 12.5007C24 12.3018 23.921 12.1111 23.7803 11.9704C23.6397 11.8298 23.4489 11.7507 23.25 11.7507ZM3 16.2507V8.75073H4.5V16.2507H3ZM8.25 18.5007H6V6.50073H8.25V18.5007ZM18 18.5007H15.75V6.50073H18V16.9839C18 16.9895 18 16.9951 18 17.0007C18 17.0064 18 17.012 18 17.0176V18.5007ZM21 16.2507H19.5V8.75073H21V16.2507Z" fill="#FFC344"/>
</g>
<defs>
<clipPath id="clip0_8_130">
<rect width="24" height="24" fill="white" transform="translate(0 0.500732)"/>
</clipPath>
</defs>
</svg>
