<svg width="24" height="25" viewBox="0 0 24 25" fill="none" xmlns="http://www.w3.org/2000/svg">
<path d="M21.6486 20.3757C20.2208 17.9073 18.0205 16.1373 15.4527 15.2982C16.7229 14.5421 17.7097 13.3899 18.2617 12.0187C18.8136 10.6474 18.9002 9.13285 18.5081 7.70762C18.116 6.28239 17.2668 5.02528 16.0911 4.12934C14.9154 3.2334 13.4781 2.74817 11.9999 2.74817C10.5217 2.74817 9.08438 3.2334 7.90866 4.12934C6.73294 5.02528 5.88382 6.28239 5.49171 7.70762C5.09959 9.13285 5.18616 10.6474 5.73813 12.0187C6.29009 13.3899 7.27692 14.5421 8.54708 15.2982C5.97926 16.1363 3.77895 17.9063 2.35114 20.3757C2.29878 20.4611 2.26405 20.5561 2.249 20.6551C2.23394 20.7541 2.23888 20.8552 2.2635 20.9522C2.28813 21.0493 2.33195 21.1405 2.39238 21.2203C2.45281 21.3002 2.52862 21.3672 2.61535 21.4173C2.70207 21.4674 2.79795 21.4996 2.89733 21.512C2.99671 21.5245 3.09757 21.5169 3.19397 21.4897C3.29037 21.4625 3.38034 21.4163 3.45859 21.3538C3.53684 21.2913 3.60178 21.2137 3.64958 21.1257C5.41583 18.0732 8.5377 16.2507 11.9999 16.2507C15.4621 16.2507 18.584 18.0732 20.3502 21.1257C20.398 21.2137 20.4629 21.2913 20.5412 21.3538C20.6194 21.4163 20.7094 21.4625 20.8058 21.4897C20.9022 21.5169 21.0031 21.5245 21.1024 21.512C21.2018 21.4996 21.2977 21.4674 21.3844 21.4173C21.4712 21.3672 21.547 21.3002 21.6074 21.2203C21.6678 21.1405 21.7116 21.0493 21.7363 20.9522C21.7609 20.8552 21.7658 20.7541 21.7508 20.6551C21.7357 20.5561 21.701 20.4611 21.6486 20.3757ZM6.74989 9.50072C6.74989 8.46237 7.05779 7.44733 7.63467 6.58398C8.21155 5.72062 9.03149 5.04771 9.9908 4.65035C10.9501 4.25299 12.0057 4.14902 13.0241 4.3516C14.0425 4.55417 14.978 5.05418 15.7122 5.78841C16.4464 6.52263 16.9464 7.4581 17.149 8.4765C17.3516 9.4949 17.2476 10.5505 16.8503 11.5098C16.4529 12.4691 15.78 13.2891 14.9166 13.8659C14.0533 14.4428 13.0382 14.7507 11.9999 14.7507C10.608 14.7492 9.27347 14.1956 8.28922 13.2114C7.30498 12.2271 6.75138 10.8926 6.74989 9.50072Z" fill="#FFC344"/>
</svg>
