<svg width="51" height="37" viewBox="0 0 51 37" fill="none" xmlns="http://www.w3.org/2000/svg">
<path d="M28.3594 33.0891L28.3594 12.1204C28.3625 9.08792 29.5686 6.18057 31.7128 4.03631C33.8571 1.89204 36.7644 0.686016 39.7969 0.682861C40.3024 0.682861 40.7873 0.883698 41.1448 1.24119C41.5023 1.59868 41.7031 2.08354 41.7031 2.58911C41.7031 3.09468 41.5023 3.57954 41.1448 3.93703C40.7873 4.29453 40.3024 4.49536 39.7969 4.49536C37.7746 4.49536 35.8352 5.29871 34.4052 6.72867C32.9752 8.15864 32.1719 10.0981 32.1719 12.1204V14.0266L46.4688 14.0266C47.4799 14.0266 48.4496 14.4283 49.1646 15.1433C49.8796 15.8582 50.2812 16.828 50.2812 17.8391V33.0891C50.2812 34.1002 49.8796 35.07 49.1646 35.785C48.4496 36.4999 47.4799 36.9016 46.4688 36.9016H32.1719C31.1607 36.9016 30.191 36.4999 29.476 35.785C28.761 35.07 28.3594 34.1002 28.3594 33.0891ZM4.53125 36.9016L18.8281 36.9016C19.8393 36.9016 20.809 36.4999 21.524 35.785C22.239 35.07 22.6406 34.1002 22.6406 33.0891L22.6406 17.8391C22.6406 16.828 22.239 15.8582 21.524 15.1433C20.809 14.4283 19.8393 14.0266 18.8281 14.0266H4.53125V12.1204C4.53125 10.0981 5.3346 8.15864 6.76456 6.72867C8.19453 5.29871 10.134 4.49536 12.1563 4.49536C12.6618 4.49536 13.1467 4.29453 13.5042 3.93703C13.8617 3.57954 14.0625 3.09468 14.0625 2.58911C14.0625 2.08354 13.8617 1.59868 13.5042 1.24119C13.1467 0.883698 12.6618 0.682861 12.1563 0.682861C9.12381 0.686016 6.21646 1.89204 4.0722 4.03631C1.92793 6.18057 0.721905 9.08792 0.71875 12.1204V33.0891C0.71875 34.1002 1.12042 35.07 1.83541 35.785C2.55039 36.4999 3.52011 36.9016 4.53125 36.9016Z" fill="#FFC344"/>
</svg>
